<?xml version="1.0" encoding="UTF-8"?>
<svg id="Layer_2" data-name="Layer 2" xmlns="http://www.w3.org/2000/svg" viewBox="0 0 797.76 915.82">
  <defs>
    <style>
      .cls-1 {
        fill: #646465;
        font-family: NunitoSans-Black, 'Nunito Sans';
        font-size: 70.87px;
        font-variation-settings: 'wght' 900, 'wdth' 100, 'opsz' 12, 'YTLC' 500;
        font-weight: 800;
      }

      .cls-2 {
        fill: #3b3b3d;
      }

      .cls-2, .cls-3 {
        stroke-width: 0px;
      }

      .cls-4 {
        opacity: .5;
      }

      .cls-3 {
        fill: none;
      }

      .cls-5 {
        opacity: .75;
      }

      .cls-6 {
        opacity: .25;
      }
    </style>
  </defs>
  <g id="Layer_1-2" data-name="Layer 1">
    <g>
      <g class="cls-6">
        <path class="cls-2" d="M709.54,618.86h1.57c-48.73,0-88.24-32.83-88.24-73.33,0-20.25,9.88-38.57,25.85-51.84,2.2-1.83,4.52-3.57,6.96-5.19-4.45-1.95-7.95-4.87-10.51-8.75-3.33-5.07-4.19-10.63-2.55-16.7,1.64-6.06,5.17-10.45,10.6-13.16,5.43-2.7,11.42-3.18,17.98-1.41,6.55,1.76,11.5,5.19,14.83,10.26,3.19,4.83,4.12,10.12,2.76,15.86,7.13-1.55,14.61-2.38,22.33-2.38h-1.57c24.36,0,46.41-8.2,62.37-21.48,15.96-13.27,25.85-31.6,25.85-51.85,0-27.71-18.48-51.82-45.77-64.29,6.18,10.55,7.36,22.94,3.52,37.19-1.83,6.8-4.85,12.63-9.06,17.46-4.2,4.85-10.08,9.37-17.62,13.58l-17.68,9.34c-5.05,2.77-8.9,5.98-11.55,9.6-.53.74-1.06,1.53-1.57,2.38-4.22,7.06-12.73,10.32-20.67,8.18-11.45-3.08-17.3-16.03-11.72-26.49,1.19-2.25,2.45-4.25,3.76-6.03,4.57-6.19,10.57-11.01,18-14.46,7.44-3.45,13.3-6.85,17.59-10.23,4.28-3.37,7.12-7.59,8.49-12.68,3.33-12.37-.32-19.99-10.98-22.86-4.92-1.32-9.38-.6-13.38,2.19-1.33.93-2.55,2.04-3.64,3.34-4.67,5.54-11.94,8.15-18.94,6.26l-5.66-1.53c-13.39-3.61-18.24-20.02-9.17-30.27-14.79-5.31-27.49-13.89-36.76-24.63.17,3.55.25,7.12.25,10.71,0,55.49-19.97,106.3-53.14,145.65l19.07,35.6c8.07,15.06,2.4,33.82-12.66,41.88l-5.31,2.86,67.89,126.71c8.07,15.07,2.39,33.82-12.67,41.9l-26.8,14.34c-15.06,8.08-33.82,2.4-41.89-12.66l-67.88-126.73-5.31,2.85c-15.06,8.07-33.82,2.39-41.88-12.66l-18.83-35.14c-8.79,1.04-17.73,1.58-26.8,1.58-124.91,0-226.16-101.27-226.16-226.19,0-1.15,0-2.3.02-3.44-.71.64-1.43,1.24-2.15,1.85-12.94,10.76-29.88,18.19-48.78,20.62,1.22,24.2,22.31,52.76,31.12,63.71,1.62,2.02.41,5.03-2.16,5.37l-83.84,11.05c-1.36.18-2.68-.49-3.33-1.68-3.73-6.8-15.24-30.81-13.47-65.78-5.19,2.81-10.02,6.05-14.38,9.68-15.96,13.29-25.85,31.62-25.85,51.87,0,35.34,30.08,64.83,70.11,71.77,6.78-8.15,16.59-14.8,29.42-19.98,17.54-7.08,32.77-8.5,45.69-4.29,12.9,4.22,22.38,13.81,28.41,28.75,2.63,6.53,3.73,13,3.29,19.4-.36,5.32-1.79,11.16-4.25,17.53,6.2,10.04,9.7,21.41,9.7,33.47,0,14.8-5.27,28.58-14.36,40.1.85.2,1.69.45,2.54.75,5.72,2.03,9.75,5.97,12.09,11.79s2.18,11.45-.53,16.89c-2.7,5.44-7.2,9.43-13.49,11.96-6.3,2.54-12.3,2.79-18.02.75-5.73-2.04-9.76-5.98-12.1-11.8-.86-2.13-1.38-4.24-1.56-6.32-12.67,5.86-27.27,9.19-42.79,9.19h-5.92c-24.36,0-46.41,8.22-62.37,21.48-15.98,13.29-25.86,31.62-25.86,51.87,0,40.49,39.5,73.32,88.22,73.32h621.31c24.36,0,46.41-8.2,62.37-21.48,15.96-13.27,25.85-31.59,25.85-51.84,0-40.5-39.5-73.34-88.22-73.34h0ZM376.59,570.77l-18.55,110.11c-.3,1.75-1.91,2.96-3.69,2.74-12.32-1.48-57.88-8.38-84.83-31.04-26.86-22.58-36.48-40.74-38.7-45.5-.35-.76-.39-1.63-.14-2.43l24.15-72.77c.69-2.05,3.13-2.92,4.95-1.74,8.08,5.21,29.01,17.83,53.96,26.14,25.44,8.49,50.43,10.24,59.7,10.61,1.99.08,3.48,1.89,3.14,3.86ZM709.54,32.24H88.22c-24.36,0-46.41,8.2-62.37,21.48C9.88,66.99,0,85.3,0,105.56c0,40.5,39.5,73.34,88.22,73.34h10.11c35.8,0,66.6,17.73,80.45,43.19,33.24-83.54,114.83-142.61,210.22-142.61s182.4,63.02,213.39,150.97c4.29-11.49,11.9-21.77,21.89-30.07,3.41-2.84,7.1-5.45,11.03-7.78-3.12.53-5.96.1-8.51-1.3-2.81-1.53-4.57-3.91-5.31-7.13-.74-3.22-.18-6.13,1.68-8.74s4.52-4.3,8.01-5.1,6.63-.43,9.43,1.11c2.81,1.53,4.58,3.91,5.31,7.13.73,3.22.18,6.13-1.68,8.74-.24.34-.49.65-.75.96,12.76-5.98,27.49-9.37,43.17-9.37h22.89c24.36,0,46.41-8.22,62.37-21.48,15.96-13.27,25.85-31.6,25.85-51.85,0-40.49-39.5-73.32-88.22-73.32h0ZM651.56,124.21c-.76,3.29-2.38,6.84-4.85,10.67l-5.91,8.71c-1.67,2.54-2.67,4.98-3,7.32-.06.48-.12.97-.14,1.48-.1,2.17-.95,4.15-2.3,5.72s-3.18,2.71-5.3,3.2c-6.09,1.39-12.01-3.19-11.99-9.44,0-1.33.09-2.58.26-3.73.59-4.01,2.19-7.73,4.79-11.18,2.61-3.43,4.49-6.47,5.66-9.09,1.16-2.62,1.44-5.29.82-7.99-1.51-6.57-5.09-9.21-10.75-7.92-2.62.6-4.51,2.04-5.68,4.32-.38.76-.68,1.58-.87,2.46-.8,3.73-3.54,6.73-7.26,7.58l-3.01.69c-7.24,1.66-13.63-5.03-11.64-12.17.73-2.64,1.91-5.1,3.5-7.37,4.29-6.09,11.32-10.25,21.07-12.48,9.71-2.23,17.75-1.7,24.11,1.57,6.36,3.26,10.48,9.03,12.38,17.3.82,3.62.86,7.07.1,10.35h0Z"/>
        <path class="cls-2" d="M677.74,296.57c26.47,0,47.93-21.46,47.93-47.93s-21.46-47.93-47.93-47.93-47.93,21.46-47.93,47.93,21.46,47.93,47.93,47.93Z"/>
        <path class="cls-2" d="M149.16,569.89c-8.59,12.89-23.26,21.38-39.9,21.38-26.47,0-47.93-21.46-47.93-47.94,0-10.76,3.55-20.69,9.55-28.7,4.24,1.74,9.18,1.95,13.99,0l5.45-2.2c6.72-2.7,10.96-9.17,11.34-16.4v-.02c2.47-.39,5.01-.6,7.59-.6,9.94,0,19.18,3.03,26.84,8.22-.1,1.52-.37,3.06-.78,4.6-1.4,5.28-4.02,11.52-7.87,18.76-3.86,7.23-5.74,14.69-5.66,22.39.02,2.2.23,4.56.63,7.08,1.85,11.71,14.32,18.52,25.32,14.09.49-.2.97-.41,1.44-.65v-.02Z"/>
      </g>
      <g class="cls-6">
        <path class="cls-2" d="M543.44,305.65c0,85.3-69.15,154.44-154.44,154.44s-154.44-69.15-154.44-154.44,69.13-154.44,154.44-154.44,154.44,69.13,154.44,154.44Z"/>
      </g>
      <path class="cls-2" d="M389,462.49c-86.48,0-156.82-70.35-156.82-156.84s70.35-156.83,156.82-156.83,156.84,70.35,156.84,156.83-70.35,156.84-156.84,156.84ZM389,153.61c-83.84,0-152.04,68.21-152.04,152.04s68.21,152.05,152.04,152.05,152.05-68.21,152.05-152.05-68.21-152.04-152.05-152.04Z"/>
      <g class="cls-4">
        <path class="cls-2" d="M389,79.48c-124.91,0-226.17,101.26-226.17,226.17s101.26,226.19,226.17,226.19c9.06,0,18.01-.54,26.79-1.58,58.52-6.89,110.2-36.14,146.27-78.95,33.17-39.35,53.14-90.17,53.14-145.65,0-124.91-101.27-226.17-226.19-226.17ZM389,460.1c-85.3,0-154.44-69.15-154.44-154.44s69.13-154.44,154.44-154.44,154.44,69.13,154.44,154.44-69.15,154.44-154.44,154.44Z"/>
      </g>
      <path class="cls-2" d="M389,534.23c-61.05,0-118.45-23.77-161.62-66.95-43.17-43.17-66.95-100.57-66.95-161.62s23.77-118.45,66.95-161.62c43.17-43.17,100.56-66.95,161.62-66.95s118.47,23.77,161.64,66.95c43.17,43.17,66.96,100.56,66.96,161.62,0,53.83-19.07,106.11-53.7,147.19-37.61,44.65-90.11,72.99-147.82,79.79-8.97,1.06-18.09,1.6-27.07,1.6h0ZM389,81.87c-123.39,0-223.78,100.39-223.78,223.78s100.39,223.79,223.78,223.79c8.8,0,17.72-.53,26.51-1.56,56.49-6.65,107.89-34.4,144.72-78.12,33.9-40.22,52.57-91.4,52.57-144.11,0-123.4-100.4-223.78-223.8-223.78Z"/>
      <g class="cls-5">
        <path class="cls-2" d="M618.38,700.25l-26.8,14.35c-15.06,8.07-33.82,2.4-41.88-12.67l-67.88-126.72,81.34-43.57,67.89,126.71c8.07,15.07,2.39,33.82-12.67,41.89h0Z"/>
      </g>
      <path class="cls-2" d="M577.01,720.68c-3.24,0-6.5-.48-9.69-1.44-8.53-2.58-15.53-8.32-19.74-16.17l-69.01-128.84,85.56-45.82,69.02,128.82c8.67,16.21,2.55,36.46-13.65,45.13l-26.8,14.35c-4.91,2.63-10.28,3.97-15.69,3.97ZM485.05,576.19l66.75,124.62c3.6,6.73,9.6,11.65,16.9,13.85,7.3,2.21,15.02,1.44,21.74-2.16l26.8-14.35c13.87-7.43,19.11-24.77,11.69-38.65l-66.76-124.61-77.12,41.31h0Z"/>
      <path class="cls-2" d="M568.47,528.79l-5.32,2.86-81.34,43.57-5.32,2.86c-15.06,8.07-33.82,2.39-41.88-12.67l-18.82-35.13c12.96-1.53,25.58-4.15,37.77-7.78,30.18-8.97,57.73-24.08,81.19-43.87,9.86-8.31,18.99-17.45,27.31-27.32l19.07,35.6c8.07,15.06,2.4,33.82-12.65,41.88Z"/>
      <path class="cls-2" d="M343.46,292.5c7.77,0,14.07-9.04,14.07-20.19s-6.3-20.19-14.07-20.19-14.07,9.04-14.07,20.19,6.3,20.19,14.07,20.19Z"/>
      <path class="cls-2" d="M434.55,292.5c7.77,0,14.07-9.04,14.07-20.19s-6.3-20.19-14.07-20.19-14.07,9.04-14.07,20.19,6.3,20.19,14.07,20.19Z"/>
      <path class="cls-2" d="M345.8,361.36c.84-1.78,1.77-3.51,2.79-5.19.51-.84,1.05-1.67,1.6-2.48.28-.41.56-.81.85-1.2.26-.37.72-.77.88-1.19l-.39.5c.12-.15.24-.31.37-.46.12-.15.25-.31.37-.46.31-.38.62-.76.94-1.13.64-.75,1.3-1.48,1.97-2.19,1.36-1.43,2.78-2.79,4.27-4.08.72-.62,1.64-1.17,2.28-1.87-.67.73-.57.43-.26.21.24-.18.47-.35.71-.53.4-.29.8-.57,1.2-.85,1.61-1.12,3.28-2.15,5-3.1.85-.47,1.73-.93,2.61-1.35.4-.19.8-.38,1.2-.56.22-.1.45-.2.67-.3.38-.17,1.1-.26-.06.02.92-.22,1.84-.73,2.74-1.05s1.85-.62,2.78-.89c1.87-.54,3.78-.98,5.7-1.31.48-.08.97-.13,1.45-.22-1.54.3.09,0,.48-.04.97-.1,1.95-.17,2.94-.21,1.92-.08,3.85-.03,5.77.14.48.04.96.09,1.43.14.19.02.38.06.57.07-1.48-.12-.47-.06-.14,0,.95.14,1.89.33,2.82.53,1.87.41,3.73.93,5.54,1.56.91.31,1.8.66,2.7,1.01.32.13.63.41-.34-.15.21.12.45.19.66.29.48.22.97.44,1.44.67,1.73.84,3.41,1.77,5.03,2.8.77.49,1.52,1,2.27,1.52.35.25.69.51,1.05.77.84.61-.87-.7-.06-.05.22.18.45.36.67.54,1.63,1.33,3.17,2.76,4.61,4.28.75.8,1.48,1.62,2.17,2.47.15.18.3.37.45.56.65.8-.66-.9-.05-.06.34.46.68.92,1.01,1.39,1.2,1.72,2.27,3.52,3.2,5.38.26.51.5,1.03.73,1.55.08.18.15.35.23.53-.61-1.24-.17-.4-.04-.09.43,1.07.81,2.15,1.15,3.25.74,2.39,3.37,4.16,5.89,3.34s4.13-3.33,3.34-5.89c-5.15-16.66-19.43-29.34-36-34.1-16.81-4.83-35.04-.47-48.78,10.06-7.84,6.01-14.39,13.68-18.63,22.65-1.07,2.26-.7,5.27,1.72,6.55,2.13,1.12,5.41.7,6.55-1.72l-.02-.02Z"/>
      <g class="cls-5">
        <path class="cls-2" d="M147.73,570.54c-11,4.44-23.46-2.37-25.32-14.09-.4-2.51-.61-4.87-.63-7.08-.09-7.7,1.79-15.16,5.66-22.38,3.85-7.23,6.48-13.47,7.87-18.76,1.4-5.27,1.11-10.35-.86-15.23-4.79-11.88-12.31-15.76-22.54-11.63-4.72,1.91-7.84,5.18-9.36,9.81-.5,1.55-.81,3.17-.89,4.86-.38,7.24-4.62,13.7-11.34,16.41l-5.45,2.19c-13.08,5.28-27.09-5.34-25.49-19.36.59-5.17,2.05-10.13,4.37-14.87,6.21-12.71,18.14-22.62,35.77-29.73,17.55-7.08,32.78-8.51,45.69-4.29s22.38,13.8,28.41,28.75c2.63,6.53,3.73,13,3.29,19.39-.44,6.4-2.4,13.55-5.9,21.45l-8.48,18.11c-2.36,5.26-3.51,10.13-3.43,14.63.02.91.07,1.86.18,2.83.88,8.18-3.94,15.92-11.58,18.99h0ZM138.49,615.98c-2.35-5.82-2.17-11.46.53-16.89,2.7-5.43,7.2-9.42,13.5-11.97,6.3-2.54,12.3-2.78,18.02-.75,5.72,2.04,9.75,5.98,12.1,11.79,2.35,5.82,2.17,11.46-.53,16.89-2.7,5.44-7.2,9.42-13.5,11.97-6.29,2.54-12.3,2.79-18.02.75-5.72-2.03-9.75-5.97-12.1-11.79Z"/>
      </g>
      <g class="cls-5">
        <path class="cls-2" d="M677.35,432.33c-11.46-3.09-17.3-16.03-11.72-26.49,1.2-2.25,2.45-4.26,3.76-6.03,4.57-6.19,10.57-11.02,18-14.46,7.43-3.45,13.29-6.85,17.58-10.23,4.29-3.37,7.12-7.59,8.49-12.68,3.33-12.37-.33-19.99-10.98-22.86-4.91-1.32-9.37-.59-13.38,2.19-1.33.93-2.54,2.04-3.64,3.34-4.67,5.54-11.93,8.15-18.93,6.26l-5.67-1.52c-13.63-3.67-18.4-20.59-8.68-30.81,3.59-3.77,7.74-6.85,12.44-9.24,12.62-6.4,28.1-7.12,46.46-2.19,18.27,4.92,31.29,12.96,39.05,24.1,7.76,11.14,9.55,24.5,5.35,40.06-1.83,6.8-4.85,12.62-9.05,17.46-4.2,4.84-10.08,9.37-17.63,13.57l-17.68,9.34c-5.05,2.77-8.9,5.98-11.55,9.6-.53.73-1.06,1.52-1.56,2.37-4.23,7.06-12.73,10.32-20.68,8.18l.02.02ZM642.6,463.04c1.64-6.06,5.16-10.45,10.59-13.16,5.43-2.71,11.42-3.18,17.98-1.42,6.56,1.76,11.5,5.19,14.84,10.26,3.33,5.07,4.19,10.64,2.55,16.7s-5.17,10.45-10.59,13.16c-5.43,2.71-11.42,3.18-17.98,1.42s-11.5-5.19-14.83-10.26c-3.33-5.07-4.19-10.64-2.55-16.7h0Z"/>
      </g>
      <g class="cls-5">
        <path class="cls-2" d="M630.06,161.3c-6.09,1.4-12-3.18-11.99-9.43,0-1.34.09-2.58.26-3.73.6-4,2.19-7.73,4.8-11.17s4.49-6.47,5.66-9.09c1.16-2.62,1.44-5.29.82-7.99-1.51-6.57-5.09-9.21-10.75-7.92-2.62.6-4.51,2.04-5.68,4.32-.39.76-.68,1.58-.87,2.45-.8,3.73-3.54,6.73-7.26,7.59l-3.02.69c-7.24,1.66-13.64-5.03-11.64-12.18.74-2.64,1.91-5.1,3.51-7.37,4.29-6.09,11.31-10.25,21.07-12.48,9.71-2.22,17.75-1.7,24.11,1.56s10.49,9.04,12.38,17.31c.83,3.61.86,7.07.1,10.35s-2.38,6.84-4.85,10.67l-5.91,8.71c-1.67,2.54-2.66,4.98-3,7.32-.07.48-.11.97-.14,1.48-.22,4.32-3.37,7.95-7.59,8.91h0ZM621.48,184.15c-.73-3.22-.18-6.13,1.68-8.74s4.52-4.3,8.01-5.1,6.63-.42,9.43,1.11c2.8,1.54,4.57,3.92,5.31,7.14s.18,6.13-1.68,8.74c-1.86,2.6-4.52,4.3-8.01,5.1s-6.63.43-9.43-1.11c-2.8-1.53-4.57-3.92-5.31-7.14h0Z"/>
      </g>
      <g class="cls-6">
        <path class="cls-2" d="M254.85,531.9c.69-2.06,3.12-2.92,4.95-1.75,8.08,5.21,29.01,17.84,53.96,26.15,25.43,8.48,50.42,10.24,59.7,10.6,2,.08,3.48,1.89,3.14,3.87l-18.56,110.11c-.3,1.75-1.91,2.95-3.68,2.74-12.33-1.49-57.88-8.38-84.83-31.04-26.95-22.66-36.48-40.74-38.69-45.5-.35-.77-.4-1.64-.14-2.43l24.15-72.77h0Z"/>
      </g>
      <path class="cls-2" d="M354.78,686.05c-.23,0-.46-.02-.69-.04-13.3-1.61-58.8-8.64-86.09-31.58-27.1-22.78-36.95-41.21-39.32-46.32-.61-1.32-.69-2.81-.23-4.2l24.15-72.77c.56-1.69,1.84-3,3.53-3.59,1.68-.59,3.49-.37,4.99.59,7.81,5.03,28.66,17.64,53.42,25.9,25.05,8.34,49.63,10.11,59.03,10.48,1.64.06,3.18.83,4.21,2.11s1.47,2.93,1.2,4.55l-18.56,110.11c-.47,2.78-2.87,4.76-5.62,4.76h0ZM257.12,532.65l-24.15,72.77c-.07.22-.06.46.03.66,2.27,4.88,11.72,22.52,38.06,44.67,26.27,22.09,70.62,28.93,83.58,30.49.5.06.95-.28,1.03-.77l18.56-110.11c.06-.36-.1-.61-.19-.73s-.32-.33-.69-.34c-9.61-.37-34.73-2.18-60.36-10.72-25.28-8.42-46.53-21.28-54.5-26.41-.33-.22-.65-.15-.81-.1s-.45.21-.57.58h0Z"/>
      <path class="cls-2" d="M265.31,622.92c-.24,0-.48-.03-.72-.11-1.26-.4-1.96-1.74-1.56-3l17.67-56.03c.4-1.26,1.75-1.96,3-1.56,1.26.4,1.96,1.74,1.56,3l-17.67,56.03c-.32,1.02-1.27,1.68-2.28,1.68Z"/>
      <path class="cls-2" d="M285.28,631.54c-.26,0-.53-.05-.8-.14-1.24-.44-1.9-1.8-1.46-3.06l11.41-32.4c.44-1.24,1.8-1.9,3.06-1.46,1.24.44,1.9,1.8,1.46,3.06l-11.41,32.4c-.34.98-1.27,1.6-2.26,1.6Z"/>
      <g class="cls-4">
        <path class="cls-2" d="M60.68,269.19l65.61-18.33c2.72-.76,5.08,2,3.91,4.57-6.19,13.58-19.39,45.53-18.29,69.07,1.12,24.24,22.3,52.92,31.13,63.89,1.62,2.02.41,5.03-2.15,5.36l-83.84,11.05c-1.36.18-2.68-.49-3.33-1.68-5.78-10.54-30.21-62.37,4.91-132.24.42-.84,1.18-1.45,2.07-1.71v.02Z"/>
      </g>
      <path class="cls-2" d="M56.58,407.23c-2.07,0-3.96-1.11-4.99-2.95-5.46-9.96-30.94-63.25,4.86-134.46.73-1.44,2.03-2.5,3.57-2.94l65.61-18.33c2.16-.61,4.42.08,5.88,1.79s1.79,4.04.85,6.09c-5.79,12.71-19.15,44.77-18.08,67.97,1.09,23.46,21.76,51.53,30.6,62.5,1.31,1.63,1.63,3.76.85,5.7-.78,1.95-2.48,3.26-4.56,3.54l-83.84,11.05c-.26.03-.51.05-.77.05h0ZM127.2,253.12c-.08,0-.18,0-.27.04l-65.61,18.33c-.26.07-.46.25-.58.48-34.72,69.08-10.21,120.41-4.95,130,.18.34.54.51.93.46l83.84-11.05c.47-.06.66-.38.74-.57.07-.18.16-.55-.14-.92-9.13-11.34-30.5-40.41-31.65-65.29-1.12-24.24,12.56-57.15,18.51-70.17.22-.47,0-.82-.14-.99-.11-.14-.34-.33-.68-.33Z"/>
    </g>
    <rect class="cls-3" width="797.75" height="797.75"/>
    <text class="cls-1" transform="translate(127.64 896.68)"><tspan x="0" y="0">Page Not Found</tspan></text>
  </g>
</svg>