<?xml version="1.0" encoding="UTF-8"?>
<svg id="Layer_2" data-name="Layer 2" xmlns="http://www.w3.org/2000/svg" xmlns:xlink="http://www.w3.org/1999/xlink" viewBox="0 0 773.52 888">
  <defs>
    <style>
      .cls-1 {
        opacity: .5;
      }

      .cls-2 {
        fill: none;
      }

      .cls-2, .cls-3 {
        stroke-width: 0px;
      }

      .cls-3 {
        fill: #ccd2d6;
      }

      .cls-4 {
        opacity: .75;
      }

      .cls-5 {
        clip-path: url(#clippath);
      }

      .cls-6 {
        fill: #646465;
        font-family: NunitoSans-Black, 'Nunito Sans';
        font-size: 68.72px;
        font-variation-settings: 'wght' 900, 'wdth' 100, 'opsz' 12, 'YTLC' 500;
        font-weight: 800;
      }

      .cls-7 {
        opacity: .25;
      }
    </style>
    <clipPath id="clippath">
      <rect class="cls-2" width="773.52" height="773.52"/>
    </clipPath>
  </defs>
  <g id="Layer_1-2" data-name="Layer 1">
    <g class="cls-5">
      <g>
        <g class="cls-7">
          <path class="cls-3" d="M687.98,600.06h1.52c-47.25,0-85.56-31.83-85.56-71.1,0-19.63,9.58-37.4,25.06-50.26,2.13-1.78,4.39-3.47,6.75-5.04-4.32-1.89-7.71-4.72-10.19-8.49-3.23-4.92-4.06-10.31-2.48-16.2,1.59-5.88,5.01-10.13,10.28-12.76,5.27-2.62,11.08-3.09,17.44-1.37,6.35,1.71,11.15,5.03,14.38,9.95,3.09,4.69,3.99,9.81,2.68,15.38,6.92-1.5,14.17-2.31,21.65-2.31h-1.52c23.62,0,45-7.95,60.47-20.82,15.48-12.86,25.06-30.64,25.06-50.28,0-26.86-17.92-50.25-44.38-62.34,5.99,10.23,7.13,22.25,3.41,36.06-1.78,6.59-4.7,12.24-8.79,16.93-4.08,4.7-9.78,9.09-17.09,13.17l-17.14,9.06c-4.9,2.68-8.63,5.79-11.2,9.31-.52.72-1.03,1.49-1.52,2.31-4.09,6.85-12.35,10.01-20.04,7.93-11.1-2.99-16.78-15.54-11.36-25.69,1.15-2.18,2.37-4.12,3.64-5.85,4.43-6,10.25-10.67,17.45-14.02,7.21-3.34,12.89-6.64,17.06-9.92,4.15-3.26,6.9-7.36,8.23-12.29,3.23-12-.31-19.38-10.64-22.16-4.77-1.28-9.1-.58-12.97,2.13-1.29.9-2.48,1.98-3.53,3.24-4.53,5.37-11.58,7.9-18.36,6.07l-5.49-1.49c-12.99-3.5-17.69-19.41-8.89-29.36-14.34-5.14-26.66-13.47-35.64-23.89.16,3.44.24,6.9.24,10.38,0,53.81-19.36,103.07-51.52,141.23l18.49,34.52c7.83,14.6,2.33,32.79-12.28,40.61l-5.15,2.77,65.83,122.86c7.82,14.61,2.31,32.8-12.28,40.63l-25.98,13.91c-14.6,7.84-32.8,2.33-40.62-12.28l-65.82-122.88-5.15,2.76c-14.6,7.82-32.79,2.32-40.61-12.28l-18.26-34.07c-8.52,1.01-17.2,1.53-25.98,1.53-121.12,0-219.29-98.19-219.29-219.32,0-1.11,0-2.23.02-3.33-.69.62-1.38,1.21-2.09,1.79-12.55,10.43-28.97,17.64-47.3,20,1.18,23.47,21.64,51.16,30.17,61.77,1.57,1.96.4,4.87-2.1,5.21l-81.29,10.71c-1.31.17-2.6-.47-3.23-1.63-3.62-6.59-14.77-29.87-13.06-63.78-5.04,2.72-9.72,5.87-13.95,9.39-15.48,12.89-25.06,30.66-25.06,50.29,0,34.27,29.16,62.86,67.98,69.59,6.57-7.9,16.09-14.35,28.53-19.38,17.01-6.86,31.78-8.25,44.3-4.16,12.51,4.09,21.7,13.39,27.55,27.88,2.55,6.34,3.61,12.61,3.19,18.81-.35,5.16-1.73,10.82-4.12,16.99,6.01,9.73,9.41,20.76,9.41,32.46,0,14.35-5.11,27.72-13.92,38.88.83.19,1.64.43,2.46.73,5.55,1.97,9.45,5.79,11.73,11.43,2.27,5.65,2.11,11.1-.51,16.38-2.62,5.28-6.98,9.14-13.08,11.6-6.11,2.47-11.93,2.71-17.47.73-5.55-1.98-9.46-5.79-11.73-11.44-.84-2.07-1.34-4.11-1.51-6.13-12.28,5.69-26.44,8.91-41.49,8.91h-5.74c-23.62,0-45,7.97-60.47,20.83-15.49,12.89-25.08,30.66-25.08,50.29,0,39.26,38.3,71.09,85.54,71.09h602.44c23.62,0,45-7.95,60.47-20.82,15.48-12.86,25.06-30.63,25.06-50.26,0-39.27-38.3-71.11-85.54-71.11h0ZM365.16,553.43l-17.98,106.77c-.29,1.69-1.86,2.87-3.57,2.66-11.94-1.44-56.13-8.12-82.26-30.1-26.04-21.9-35.37-39.5-37.52-44.11-.34-.73-.38-1.58-.13-2.35l23.41-70.56c.67-1.99,3.03-2.83,4.8-1.69,7.84,5.05,28.13,17.29,52.32,25.35,24.67,8.23,48.89,9.93,57.89,10.29,1.93.08,3.37,1.83,3.05,3.74ZM687.98,31.26H85.54c-23.62,0-45,7.95-60.47,20.82C9.58,64.95,0,82.71,0,102.35c0,39.27,38.3,71.11,85.54,71.11h9.8c34.71,0,64.58,17.19,78,41.88,32.23-81,111.34-138.27,203.84-138.27s176.86,61.11,206.91,146.38c4.16-11.14,11.54-21.11,21.23-29.15,3.31-2.75,6.88-5.28,10.7-7.54-3.02.52-5.78.1-8.25-1.26-2.72-1.49-4.43-3.79-5.14-6.92-.72-3.13-.17-5.95,1.62-8.47s4.39-4.17,7.77-4.94,6.43-.42,9.14,1.08c2.72,1.49,4.44,3.79,5.15,6.92.71,3.13.17,5.95-1.62,8.47-.23.32-.48.63-.73.93,12.37-5.79,26.66-9.09,41.86-9.09h22.19c23.62,0,45-7.97,60.47-20.83,15.48-12.86,25.06-30.64,25.06-50.28,0-39.26-38.3-71.09-85.54-71.09h0ZM631.76,120.44c-.73,3.19-2.31,6.64-4.7,10.34l-5.73,8.45c-1.62,2.46-2.59,4.83-2.91,7.1-.06.46-.12.94-.14,1.44-.1,2.1-.92,4.02-2.23,5.55s-3.09,2.63-5.14,3.1c-5.9,1.35-11.64-3.09-11.63-9.15,0-1.29.09-2.5.26-3.61.57-3.89,2.13-7.5,4.65-10.84,2.53-3.33,4.35-6.27,5.48-8.82,1.13-2.54,1.4-5.13.8-7.75-1.46-6.37-4.94-8.93-10.43-7.68-2.54.58-4.37,1.98-5.51,4.19-.37.73-.66,1.53-.84,2.38-.77,3.61-3.43,6.52-7.04,7.35l-2.92.67c-7.02,1.61-13.22-4.87-11.29-11.8.71-2.56,1.85-4.94,3.4-7.15,4.16-5.91,10.98-9.94,20.43-12.11,9.41-2.16,17.21-1.65,23.38,1.52,6.16,3.16,10.16,8.76,12.01,16.78.8,3.51.84,6.85.09,10.04h0Z"/>
          <path class="cls-3" d="M657.15,287.56c25.67,0,46.47-20.81,46.47-46.47s-20.81-46.47-46.47-46.47-46.47,20.81-46.47,46.47,20.81,46.47,46.47,46.47Z"/>
          <path class="cls-3" d="M144.63,552.58c-8.33,12.5-22.56,20.73-38.69,20.73-25.67,0-46.47-20.81-46.47-46.48,0-10.43,3.44-20.07,9.26-27.82,4.11,1.69,8.9,1.9,13.57,0l5.28-2.13c6.51-2.62,10.63-8.89,11-15.9v-.02c2.4-.38,4.86-.58,7.36-.58,9.64,0,18.6,2.94,26.02,7.97-.1,1.48-.36,2.96-.76,4.46-1.35,5.12-3.9,11.17-7.63,18.19-3.74,7.01-5.57,14.25-5.48,21.71.02,2.13.22,4.42.61,6.86,1.79,11.36,13.88,17.96,24.55,13.66.48-.19.94-.4,1.39-.63v-.02Z"/>
        </g>
        <g class="cls-7">
          <path class="cls-3" d="M526.94,296.37c0,82.7-67.05,149.75-149.75,149.75s-149.75-67.05-149.75-149.75,67.03-149.75,149.75-149.75,149.75,67.03,149.75,149.75Z"/>
        </g>
        <path class="cls-3" d="M377.18,448.44c-83.85,0-152.06-68.22-152.06-152.07s68.22-152.07,152.06-152.07,152.07,68.22,152.07,152.07-68.22,152.07-152.07,152.07ZM377.18,148.94c-81.29,0-147.42,66.14-147.42,147.43s66.14,147.43,147.42,147.43,147.43-66.14,147.43-147.43-66.13-147.43-147.43-147.43Z"/>
        <g class="cls-1">
          <path class="cls-3" d="M377.18,77.07c-121.12,0-219.3,98.18-219.3,219.3s98.18,219.32,219.3,219.32c8.79,0,17.46-.53,25.97-1.53,56.74-6.68,106.85-35.04,141.82-76.56,32.16-38.15,51.52-87.43,51.52-141.23,0-121.12-98.19-219.3-219.32-219.3ZM377.18,446.12c-82.7,0-149.75-67.05-149.75-149.75s67.03-149.75,149.75-149.75,149.75,67.03,149.75,149.75-67.05,149.75-149.75,149.75Z"/>
        </g>
        <path class="cls-3" d="M377.18,518c-59.2,0-114.85-23.05-156.71-64.91-41.86-41.86-64.91-97.52-64.91-156.71s23.05-114.85,64.91-156.71c41.86-41.86,97.51-64.91,156.71-64.91s114.87,23.05,156.73,64.91c41.86,41.86,64.92,97.51,64.92,156.71,0,52.2-18.49,102.89-52.07,142.72-36.47,43.29-87.38,70.78-143.33,77.37-8.7,1.03-17.54,1.55-26.25,1.55h0ZM377.18,79.39c-119.64,0-216.98,97.34-216.98,216.98s97.34,217,216.98,217c8.53,0,17.18-.51,25.7-1.52,54.77-6.45,104.61-33.35,140.32-75.75,32.87-39,50.97-88.62,50.97-139.73,0-119.65-97.35-216.98-217-216.98Z"/>
        <g class="cls-4">
          <path class="cls-3" d="M599.59,678.98l-25.99,13.92c-14.6,7.83-32.79,2.33-40.61-12.28l-65.82-122.87,78.87-42.24,65.83,122.87c7.82,14.61,2.32,32.8-12.28,40.62h0Z"/>
        </g>
        <path class="cls-3" d="M559.48,698.79c-3.14,0-6.3-.46-9.4-1.4-8.27-2.5-15.06-8.07-19.14-15.68l-66.91-124.92,82.96-44.43,66.92,124.91c8.41,15.72,2.48,35.35-13.23,43.76l-25.99,13.92c-4.76,2.55-9.96,3.85-15.22,3.85ZM470.32,558.69l64.72,120.83c3.49,6.52,9.31,11.29,16.39,13.43,7.08,2.14,14.57,1.39,21.08-2.1l25.99-13.92c13.45-7.2,18.53-24.02,11.33-37.48l-64.73-120.82-74.78,40.05h0Z"/>
        <path class="cls-3" d="M551.2,512.73l-5.16,2.77-78.87,42.24-5.16,2.77c-14.6,7.82-32.79,2.32-40.61-12.28l-18.25-34.07c12.56-1.49,24.8-4.02,36.63-7.54,29.26-8.69,55.98-23.34,78.72-42.54,9.56-8.06,18.42-16.92,26.48-26.49l18.49,34.52c7.83,14.6,2.33,32.79-12.27,40.61Z"/>
        <path class="cls-3" d="M333.02,283.61c7.54,0,13.64-8.77,13.64-19.58s-6.11-19.58-13.64-19.58-13.64,8.77-13.64,19.58,6.11,19.58,13.64,19.58Z"/>
        <path class="cls-3" d="M421.35,283.61c7.54,0,13.64-8.77,13.64-19.58s-6.11-19.58-13.64-19.58-13.64,8.77-13.64,19.58,6.11,19.58,13.64,19.58Z"/>
        <path class="cls-3" d="M335.3,350.38c.81-1.72,1.72-3.4,2.71-5.04.5-.81,1.01-1.62,1.55-2.41.27-.39.54-.78.82-1.17.26-.36.7-.75.85-1.15l-.38.49c.12-.15.23-.3.36-.45.12-.15.24-.3.36-.45.3-.37.6-.73.91-1.1.62-.73,1.26-1.44,1.91-2.13,1.31-1.38,2.69-2.71,4.14-3.96.7-.6,1.59-1.14,2.21-1.82-.65.7-.55.42-.26.2.23-.17.46-.34.69-.51.39-.28.77-.56,1.16-.83,1.56-1.08,3.18-2.09,4.85-3.01.83-.46,1.68-.9,2.53-1.31.39-.19.77-.37,1.16-.54.22-.1.43-.19.65-.29.37-.16,1.07-.25-.06.02.89-.22,1.79-.71,2.65-1.01s1.79-.6,2.7-.87c1.82-.53,3.67-.95,5.53-1.27.46-.08.94-.12,1.41-.22-1.49.29.09,0,.46-.04.94-.09,1.9-.16,2.85-.2,1.86-.08,3.74-.03,5.59.13.46.04.93.09,1.38.14.19.02.37.05.56.07-1.43-.12-.46-.05-.13,0,.92.14,1.83.32,2.74.51,1.82.39,3.61.91,5.38,1.51.88.3,1.75.64,2.61.98.31.12.61.4-.33-.15.2.12.43.19.64.28.46.21.94.43,1.39.65,1.68.81,3.3,1.72,4.88,2.72.74.47,1.48.97,2.2,1.48.34.24.67.5,1.01.74.81.6-.84-.68-.05-.05.22.18.43.35.65.53,1.58,1.29,3.07,2.68,4.47,4.15.73.77,1.43,1.57,2.1,2.39.15.18.29.36.43.54.63.77-.64-.87-.05-.06.32.45.66.89.97,1.35,1.16,1.66,2.2,3.41,3.1,5.22.25.5.49,1,.71,1.5.08.17.15.34.22.51-.59-1.21-.16-.39-.04-.09.42,1.04.78,2.08,1.11,3.15.72,2.31,3.27,4.03,5.71,3.24s4.01-3.23,3.24-5.71c-5-16.15-18.84-28.45-34.91-33.07-16.3-4.68-33.97-.46-47.3,9.75-7.6,5.82-13.95,13.27-18.06,21.96-1.04,2.19-.68,5.11,1.66,6.35,2.07,1.09,5.24.68,6.35-1.66l-.02-.02Z"/>
        <g class="cls-4">
          <path class="cls-3" d="M143.24,553.21c-10.67,4.3-22.75-2.3-24.55-13.66-.39-2.44-.59-4.73-.61-6.87-.09-7.46,1.74-14.7,5.48-21.7,3.74-7.01,6.28-13.06,7.63-18.19,1.35-5.11,1.08-10.03-.84-14.77-4.65-11.52-11.94-15.28-21.85-11.28-4.58,1.85-7.6,5.02-9.07,9.51-.49,1.5-.78,3.07-.87,4.71-.37,7.02-4.48,13.28-10.99,15.91l-5.28,2.13c-12.69,5.12-26.27-5.18-24.71-18.77.57-5.01,1.99-9.82,4.24-14.42,6.03-12.32,17.59-21.94,34.68-28.83,17.02-6.86,31.78-8.25,44.3-4.16s21.7,13.38,27.55,27.88c2.55,6.34,3.62,12.6,3.19,18.8-.43,6.2-2.33,13.14-5.72,20.8l-8.22,17.56c-2.29,5.1-3.4,9.82-3.33,14.19.02.88.07,1.8.18,2.75.85,7.93-3.82,15.43-11.22,18.41h0ZM134.28,597.27c-2.27-5.65-2.1-11.11.51-16.38,2.62-5.27,6.98-9.14,13.09-11.6s11.93-2.7,17.47-.73c5.55,1.98,9.45,5.79,11.73,11.43,2.28,5.65,2.1,11.11-.51,16.38-2.62,5.28-6.98,9.14-13.09,11.6-6.1,2.46-11.93,2.71-17.47.73-5.55-1.97-9.45-5.79-11.73-11.43Z"/>
        </g>
        <g class="cls-4">
          <path class="cls-3" d="M656.78,419.19c-11.11-2.99-16.78-15.54-11.36-25.69,1.16-2.18,2.37-4.13,3.64-5.85,4.43-6,10.25-10.68,17.45-14.02,7.2-3.34,12.89-6.64,17.05-9.92,4.16-3.26,6.91-7.36,8.23-12.29,3.23-12-.32-19.38-10.64-22.17-4.76-1.28-9.09-.57-12.97,2.13-1.29.91-2.47,1.98-3.53,3.24-4.53,5.38-11.57,7.91-18.36,6.07l-5.5-1.48c-13.21-3.56-17.85-19.96-8.42-29.87,3.48-3.66,7.5-6.64,12.07-8.96,12.24-6.2,27.25-6.91,45.05-2.12,17.71,4.77,30.34,12.56,37.86,23.37s9.26,23.75,5.19,38.85c-1.78,6.6-4.7,12.24-8.78,16.93-4.08,4.7-9.78,9.08-17.09,13.16l-17.14,9.06c-4.9,2.68-8.63,5.79-11.2,9.31-.52.71-1.03,1.48-1.52,2.3-4.1,6.85-12.35,10.01-20.05,7.94l.02.02ZM623.09,448.97c1.59-5.88,5-10.13,10.27-12.76,5.27-2.63,11.08-3.09,17.44-1.38,6.36,1.71,11.15,5.03,14.39,9.95,3.23,4.92,4.06,10.32,2.48,16.2-1.59,5.88-5.01,10.13-10.27,12.76-5.27,2.63-11.08,3.09-17.44,1.38-6.36-1.71-11.15-5.03-14.38-9.95-3.23-4.92-4.06-10.32-2.48-16.2h0Z"/>
        </g>
        <g class="cls-4">
          <path class="cls-3" d="M610.92,156.4c-5.9,1.35-11.63-3.09-11.63-9.14,0-1.3.09-2.51.25-3.62.58-3.88,2.13-7.5,4.66-10.83s4.35-6.27,5.48-8.82,1.39-5.13.8-7.74c-1.46-6.37-4.94-8.93-10.42-7.68-2.54.58-4.37,1.98-5.51,4.19-.38.73-.66,1.53-.84,2.37-.77,3.62-3.43,6.53-7.04,7.36l-2.92.67c-7.02,1.61-13.23-4.88-11.29-11.81.72-2.56,1.85-4.94,3.4-7.15,4.16-5.9,10.97-9.94,20.43-12.11,9.41-2.15,17.21-1.65,23.38,1.52,6.16,3.16,10.17,8.76,12.01,16.79.8,3.5.84,6.85.1,10.04s-2.31,6.64-4.7,10.34l-5.73,8.45c-1.62,2.46-2.58,4.83-2.91,7.1-.07.46-.11.94-.14,1.44-.22,4.19-3.27,7.7-7.36,8.64h0ZM602.6,178.56c-.71-3.13-.17-5.95,1.63-8.47s4.39-4.17,7.77-4.94,6.43-.41,9.14,1.08c2.72,1.49,4.43,3.8,5.15,6.92s.17,5.95-1.62,8.47c-1.8,2.52-4.39,4.17-7.77,4.94s-6.43.42-9.14-1.08c-2.72-1.49-4.43-3.8-5.15-6.92h0Z"/>
        </g>
        <g class="cls-7">
          <path class="cls-3" d="M247.11,515.74c.67-2,3.02-2.83,4.8-1.69,7.84,5.05,28.13,17.3,52.32,25.36,24.66,8.22,48.89,9.92,57.88,10.28,1.94.08,3.37,1.83,3.05,3.75l-17.99,106.77c-.29,1.69-1.86,2.86-3.57,2.66-11.95-1.45-56.13-8.12-82.26-30.1-26.13-21.98-35.37-39.5-37.52-44.11-.34-.74-.39-1.59-.13-2.36l23.41-70.56h0Z"/>
        </g>
        <path class="cls-3" d="M344,665.21c-.22,0-.45-.02-.67-.04-12.89-1.56-57.02-8.38-83.47-30.62-26.28-22.09-35.83-39.96-38.13-44.91-.6-1.28-.67-2.72-.22-4.07l23.41-70.56c.54-1.64,1.79-2.91,3.42-3.48,1.62-.57,3.39-.36,4.83.57,7.57,4.88,27.78,17.1,51.79,25.11,24.29,8.09,48.12,9.8,57.24,10.16,1.59.06,3.08.8,4.08,2.04s1.42,2.84,1.16,4.41l-17.99,106.77c-.46,2.7-2.78,4.62-5.45,4.62h0ZM249.31,516.47l-23.41,70.56c-.07.22-.06.45.03.64,2.2,4.73,11.36,21.84,36.9,43.32,25.47,21.42,68.47,28.05,81.04,29.56.49.06.92-.27,1-.74l17.99-106.77c.06-.35-.09-.6-.19-.71s-.31-.32-.67-.33c-9.32-.36-33.68-2.11-58.52-10.4-24.51-8.17-45.12-20.63-52.85-25.61-.32-.21-.63-.15-.78-.09s-.43.2-.56.56h0Z"/>
        <path class="cls-3" d="M257.25,603.99c-.23,0-.46-.03-.7-.11-1.22-.39-1.9-1.69-1.52-2.91l17.13-54.32c.39-1.22,1.69-1.9,2.91-1.52,1.22.39,1.9,1.69,1.52,2.91l-17.13,54.32c-.31.99-1.23,1.62-2.21,1.62Z"/>
        <path class="cls-3" d="M276.61,612.36c-.26,0-.52-.05-.77-.13-1.21-.43-1.84-1.75-1.42-2.96l11.06-31.41c.43-1.21,1.75-1.84,2.96-1.42,1.21.43,1.84,1.75,1.42,2.96l-11.06,31.41c-.33.95-1.23,1.55-2.19,1.55Z"/>
        <g class="cls-1">
          <path class="cls-3" d="M58.84,261.01l63.61-17.78c2.64-.73,4.93,1.94,3.79,4.43-6,13.17-18.8,44.14-17.74,66.97,1.09,23.5,21.62,51.32,30.18,61.95,1.57,1.96.39,4.87-2.09,5.2l-81.29,10.71c-1.31.17-2.6-.47-3.23-1.63-5.61-10.22-29.29-60.47,4.76-128.22.41-.81,1.14-1.41,2.01-1.66v.02Z"/>
        </g>
        <path class="cls-3" d="M54.87,394.86c-2,0-3.84-1.08-4.83-2.86-5.3-9.65-30-61.32,4.71-130.38.7-1.39,1.96-2.43,3.47-2.85l63.61-17.78c2.1-.59,4.29.08,5.7,1.73s1.73,3.91.83,5.9c-5.62,12.32-18.57,43.41-17.53,65.9,1.06,22.75,21.1,49.96,29.67,60.61,1.27,1.58,1.58,3.64.83,5.52-.76,1.89-2.41,3.16-4.42,3.43l-81.29,10.71c-.25.03-.5.05-.74.05h0ZM123.34,245.43c-.08,0-.17,0-.26.04l-63.61,17.78c-.25.07-.45.24-.56.46-33.66,66.98-9.9,116.75-4.8,126.05.18.32.53.5.9.45l81.29-10.71c.46-.06.64-.37.72-.56.07-.18.15-.53-.13-.89-8.86-11-29.57-39.19-30.69-63.3-1.09-23.5,12.18-55.41,17.95-68.04.21-.46,0-.8-.13-.96-.11-.13-.32-.32-.66-.32Z"/>
      </g>
    </g>
    <text class="cls-6" transform="translate(123.76 869.45)"><tspan x="0" y="0">Page Not Found</tspan></text>
  </g>
</svg>