<?xml version="1.0" encoding="utf-8"?>
<!-- Generator: Adobe Illustrator 27.5.0, SVG Export Plug-In . SVG Version: 6.00 Build 0)  -->
<svg version="1.1" id="Layer_1" xmlns="http://www.w3.org/2000/svg" xmlns:xlink="http://www.w3.org/1999/xlink" x="0px" y="0px"
	 viewBox="0 0 4000 4000" style="enable-background:new 0 0 4000 4000;" xml:space="preserve">
<g>
	<path style="fill:#B3B3B3;" d="M3576.479,1999.989c0,447.18-186.166,850.861-485.251,1137.752
		C2808.01,3409.5,2423.506,3576.49,2000,3576.49c-423.506,0-808.01-166.99-1091.227-438.748
		c-299.085-286.892-485.251-690.573-485.251-1137.752c0-870.664,705.815-1576.479,1576.479-1576.479
		S3576.479,1129.325,3576.479,1999.989z"/>
	<path style="fill:#E7E7E7;" d="M3091.227,3137.742C2808.01,3409.5,2423.506,3576.49,2000,3576.49
		c-423.506,0-808.01-166.99-1091.227-438.748c155.531-453.104,585.35-778.759,1091.227-778.759
		c159.272,0,310.976,32.278,448.974,90.651C2749.313,2576.67,2984.664,2827.284,3091.227,3137.742z"/>
	<circle style="fill:#E7E7E7;" cx="1999.999" cy="1647.79" r="577.197"/>
</g>
</svg>
